<mxfile host="app.diagrams.net" modified="2023-12-02T11:09:02.082Z" agent="Mozilla/5.0 (Macintosh; Intel Mac OS X 10_15_7) AppleWebKit/537.36 (KHTML, like Gecko) Chrome/119.0.0.0 Safari/537.36" etag="MHdgFsZmN7Kl6j4c8jYt" version="22.1.5" type="github">
  <diagram name="第 1 页" id="dUhNqRRdXMLL_T_5G1Sb">
    <mxGraphModel dx="2562" dy="-2596" grid="1" gridSize="10" guides="1" tooltips="1" connect="1" arrows="1" fold="1" page="1" pageScale="1" pageWidth="827" pageHeight="1169" math="0" shadow="0">
      <root>
        <mxCell id="0" />
        <mxCell id="1" parent="0" />
        <mxCell id="LxxAJ4fF1tAMyiBmIzMk-1" value="" style="edgeStyle=orthogonalEdgeStyle;rounded=0;orthogonalLoop=1;jettySize=auto;html=1;endArrow=classic;endFill=1;entryX=0;entryY=0.5;entryDx=0;entryDy=0;" edge="1" parent="1" source="LxxAJ4fF1tAMyiBmIzMk-2" target="LxxAJ4fF1tAMyiBmIzMk-7">
          <mxGeometry relative="1" as="geometry">
            <mxPoint x="120" y="3810" as="targetPoint" />
          </mxGeometry>
        </mxCell>
        <mxCell id="LxxAJ4fF1tAMyiBmIzMk-2" value="开始" style="rounded=1;whiteSpace=wrap;html=1;strokeColor=#005700;fillColor=#008a00;fontColor=#ffffff;" vertex="1" parent="1">
          <mxGeometry x="-100" y="3778.5" width="120" height="60" as="geometry" />
        </mxCell>
        <mxCell id="LxxAJ4fF1tAMyiBmIzMk-3" value="" style="edgeStyle=orthogonalEdgeStyle;rounded=0;orthogonalLoop=1;jettySize=auto;html=1;endArrow=classic;endFill=1;entryX=0;entryY=0.5;entryDx=0;entryDy=0;" edge="1" parent="1" source="LxxAJ4fF1tAMyiBmIzMk-7" target="LxxAJ4fF1tAMyiBmIzMk-12">
          <mxGeometry relative="1" as="geometry">
            <mxPoint x="320" y="3810" as="targetPoint" />
          </mxGeometry>
        </mxCell>
        <mxCell id="LxxAJ4fF1tAMyiBmIzMk-4" value="是" style="edgeLabel;html=1;align=center;verticalAlign=middle;resizable=0;points=[];" vertex="1" connectable="0" parent="LxxAJ4fF1tAMyiBmIzMk-3">
          <mxGeometry x="-0.0745" relative="1" as="geometry">
            <mxPoint as="offset" />
          </mxGeometry>
        </mxCell>
        <mxCell id="LxxAJ4fF1tAMyiBmIzMk-5" value="" style="edgeStyle=orthogonalEdgeStyle;rounded=0;orthogonalLoop=1;jettySize=auto;html=1;endArrow=classic;endFill=1;" edge="1" parent="1" source="LxxAJ4fF1tAMyiBmIzMk-7" target="LxxAJ4fF1tAMyiBmIzMk-8">
          <mxGeometry relative="1" as="geometry" />
        </mxCell>
        <mxCell id="LxxAJ4fF1tAMyiBmIzMk-6" value="否" style="edgeLabel;html=1;align=center;verticalAlign=middle;resizable=0;points=[];" vertex="1" connectable="0" parent="LxxAJ4fF1tAMyiBmIzMk-5">
          <mxGeometry x="-0.2318" y="-1" relative="1" as="geometry">
            <mxPoint as="offset" />
          </mxGeometry>
        </mxCell>
        <mxCell id="LxxAJ4fF1tAMyiBmIzMk-7" value="是否有广告投放" style="rhombus;whiteSpace=wrap;html=1;strokeColor=#A50040;fillColor=#d80073;fontColor=#ffffff;" vertex="1" parent="1">
          <mxGeometry x="80" y="3770" width="80" height="80" as="geometry" />
        </mxCell>
        <mxCell id="LxxAJ4fF1tAMyiBmIzMk-8" value="&lt;pre style=&quot;font-family: &amp;quot;jetbrains mono&amp;quot; , monospace ; font-size: 9.8pt&quot;&gt;结束&lt;/pre&gt;" style="whiteSpace=wrap;html=1;fillColor=#f0a30a;fontColor=#000000;strokeColor=#BD7000;" vertex="1" parent="1">
          <mxGeometry x="55" y="3950" width="130" height="40" as="geometry" />
        </mxCell>
        <mxCell id="LxxAJ4fF1tAMyiBmIzMk-9" value="否" style="edgeStyle=orthogonalEdgeStyle;rounded=0;orthogonalLoop=1;jettySize=auto;html=1;endArrow=classic;endFill=1;entryX=0.5;entryY=0;entryDx=0;entryDy=0;" edge="1" parent="1" source="LxxAJ4fF1tAMyiBmIzMk-12" target="LxxAJ4fF1tAMyiBmIzMk-18">
          <mxGeometry relative="1" as="geometry">
            <mxPoint x="405" y="3970" as="targetPoint" />
          </mxGeometry>
        </mxCell>
        <mxCell id="LxxAJ4fF1tAMyiBmIzMk-10" value="" style="edgeStyle=orthogonalEdgeStyle;rounded=0;orthogonalLoop=1;jettySize=auto;html=1;endArrow=classic;endFill=1;" edge="1" parent="1" source="LxxAJ4fF1tAMyiBmIzMk-12" target="LxxAJ4fF1tAMyiBmIzMk-13">
          <mxGeometry relative="1" as="geometry" />
        </mxCell>
        <mxCell id="LxxAJ4fF1tAMyiBmIzMk-11" value="是" style="edgeLabel;html=1;align=center;verticalAlign=middle;resizable=0;points=[];" vertex="1" connectable="0" parent="LxxAJ4fF1tAMyiBmIzMk-10">
          <mxGeometry x="-0.0678" relative="1" as="geometry">
            <mxPoint as="offset" />
          </mxGeometry>
        </mxCell>
        <mxCell id="LxxAJ4fF1tAMyiBmIzMk-12" value="是否为三方广告" style="rhombus;whiteSpace=wrap;html=1;strokeColor=#A50040;fillColor=#d80073;fontColor=#ffffff;" vertex="1" parent="1">
          <mxGeometry x="354" y="3760" width="110" height="100" as="geometry" />
        </mxCell>
        <mxCell id="LxxAJ4fF1tAMyiBmIzMk-13" value="将联盟的模版view 添加到我们开屏容器直接展示" style="whiteSpace=wrap;html=1;fillColor=#1ba1e2;fontColor=#ffffff;strokeColor=#006EAF;" vertex="1" parent="1">
          <mxGeometry x="595" y="3775" width="135" height="65" as="geometry" />
        </mxCell>
        <mxCell id="LxxAJ4fF1tAMyiBmIzMk-14" value="" style="edgeStyle=orthogonalEdgeStyle;rounded=0;orthogonalLoop=1;jettySize=auto;html=1;endArrow=classic;endFill=1;" edge="1" parent="1" source="LxxAJ4fF1tAMyiBmIzMk-18" target="LxxAJ4fF1tAMyiBmIzMk-8">
          <mxGeometry relative="1" as="geometry" />
        </mxCell>
        <mxCell id="LxxAJ4fF1tAMyiBmIzMk-15" value="非img非video" style="edgeLabel;html=1;align=center;verticalAlign=middle;resizable=0;points=[];" vertex="1" connectable="0" parent="LxxAJ4fF1tAMyiBmIzMk-14">
          <mxGeometry x="0.0891" y="-2" relative="1" as="geometry">
            <mxPoint as="offset" />
          </mxGeometry>
        </mxCell>
        <mxCell id="LxxAJ4fF1tAMyiBmIzMk-16" value="" style="edgeStyle=orthogonalEdgeStyle;rounded=0;orthogonalLoop=1;jettySize=auto;html=1;endArrow=classic;endFill=1;" edge="1" parent="1" source="LxxAJ4fF1tAMyiBmIzMk-18" target="LxxAJ4fF1tAMyiBmIzMk-20">
          <mxGeometry relative="1" as="geometry" />
        </mxCell>
        <mxCell id="LxxAJ4fF1tAMyiBmIzMk-17" value="" style="edgeStyle=orthogonalEdgeStyle;rounded=0;orthogonalLoop=1;jettySize=auto;html=1;endArrow=classic;endFill=1;" edge="1" parent="1" source="LxxAJ4fF1tAMyiBmIzMk-18" target="LxxAJ4fF1tAMyiBmIzMk-21">
          <mxGeometry relative="1" as="geometry" />
        </mxCell>
        <mxCell id="LxxAJ4fF1tAMyiBmIzMk-18" value="自有广告，判断广告素材类型" style="rounded=0;whiteSpace=wrap;html=1;strokeColor=#006EAF;fillColor=#1ba1e2;fontColor=#ffffff;" vertex="1" parent="1">
          <mxGeometry x="350" y="3940" width="115" height="60" as="geometry" />
        </mxCell>
        <mxCell id="LxxAJ4fF1tAMyiBmIzMk-19" value="" style="edgeStyle=orthogonalEdgeStyle;rounded=0;orthogonalLoop=1;jettySize=auto;html=1;endArrow=classic;endFill=1;" edge="1" parent="1" source="LxxAJ4fF1tAMyiBmIzMk-20" target="LxxAJ4fF1tAMyiBmIzMk-25">
          <mxGeometry relative="1" as="geometry" />
        </mxCell>
        <mxCell id="LxxAJ4fF1tAMyiBmIzMk-20" value="图文广告" style="whiteSpace=wrap;html=1;rounded=0;fillColor=#1ba1e2;fontColor=#ffffff;strokeColor=#006EAF;" vertex="1" parent="1">
          <mxGeometry x="542.5" y="3940" width="120" height="60" as="geometry" />
        </mxCell>
        <mxCell id="LxxAJ4fF1tAMyiBmIzMk-50" value="" style="edgeStyle=orthogonalEdgeStyle;rounded=0;orthogonalLoop=1;jettySize=auto;html=1;" edge="1" parent="1" source="LxxAJ4fF1tAMyiBmIzMk-21" target="LxxAJ4fF1tAMyiBmIzMk-49">
          <mxGeometry relative="1" as="geometry" />
        </mxCell>
        <mxCell id="LxxAJ4fF1tAMyiBmIzMk-21" value="视频广告(跳转到视频页)" style="whiteSpace=wrap;html=1;rounded=0;fillColor=#1ba1e2;fontColor=#ffffff;strokeColor=#006EAF;" vertex="1" parent="1">
          <mxGeometry x="347.5" y="4120" width="120" height="60" as="geometry" />
        </mxCell>
        <mxCell id="LxxAJ4fF1tAMyiBmIzMk-22" style="edgeStyle=orthogonalEdgeStyle;rounded=0;orthogonalLoop=1;jettySize=auto;html=1;endArrow=classic;endFill=1;" edge="1" parent="1" source="LxxAJ4fF1tAMyiBmIzMk-25" target="LxxAJ4fF1tAMyiBmIzMk-8">
          <mxGeometry relative="1" as="geometry" />
        </mxCell>
        <mxCell id="LxxAJ4fF1tAMyiBmIzMk-23" value="否" style="edgeLabel;html=1;align=center;verticalAlign=middle;resizable=0;points=[];" vertex="1" connectable="0" parent="LxxAJ4fF1tAMyiBmIzMk-22">
          <mxGeometry x="0.1844" relative="1" as="geometry">
            <mxPoint as="offset" />
          </mxGeometry>
        </mxCell>
        <mxCell id="LxxAJ4fF1tAMyiBmIzMk-24" value="是" style="edgeStyle=orthogonalEdgeStyle;rounded=0;orthogonalLoop=1;jettySize=auto;html=1;endArrow=classic;endFill=1;entryX=0;entryY=0.5;entryDx=0;entryDy=0;" edge="1" parent="1" source="LxxAJ4fF1tAMyiBmIzMk-25" target="LxxAJ4fF1tAMyiBmIzMk-29">
          <mxGeometry relative="1" as="geometry">
            <mxPoint x="730" y="4070" as="targetPoint" />
          </mxGeometry>
        </mxCell>
        <mxCell id="LxxAJ4fF1tAMyiBmIzMk-25" value="广告素材路径是否存在" style="rhombus;whiteSpace=wrap;html=1;rounded=0;fillColor=#d80073;fontColor=#ffffff;strokeColor=#A50040;" vertex="1" parent="1">
          <mxGeometry x="562.5" y="4030" width="80" height="80" as="geometry" />
        </mxCell>
        <mxCell id="LxxAJ4fF1tAMyiBmIzMk-26" value="否" style="edgeStyle=orthogonalEdgeStyle;rounded=0;orthogonalLoop=1;jettySize=auto;html=1;endArrow=classic;endFill=1;" edge="1" parent="1" source="LxxAJ4fF1tAMyiBmIzMk-29" target="LxxAJ4fF1tAMyiBmIzMk-31">
          <mxGeometry relative="1" as="geometry" />
        </mxCell>
        <mxCell id="LxxAJ4fF1tAMyiBmIzMk-27" style="edgeStyle=orthogonalEdgeStyle;rounded=0;orthogonalLoop=1;jettySize=auto;html=1;exitX=1;exitY=0.5;exitDx=0;exitDy=0;endArrow=classic;endFill=1;entryX=0;entryY=0.5;entryDx=0;entryDy=0;" edge="1" parent="1" source="LxxAJ4fF1tAMyiBmIzMk-29" target="LxxAJ4fF1tAMyiBmIzMk-37">
          <mxGeometry relative="1" as="geometry">
            <mxPoint x="900" y="4080" as="targetPoint" />
          </mxGeometry>
        </mxCell>
        <mxCell id="LxxAJ4fF1tAMyiBmIzMk-28" value="是" style="edgeLabel;html=1;align=center;verticalAlign=middle;resizable=0;points=[];" vertex="1" connectable="0" parent="LxxAJ4fF1tAMyiBmIzMk-27">
          <mxGeometry x="-0.3102" y="-1" relative="1" as="geometry">
            <mxPoint as="offset" />
          </mxGeometry>
        </mxCell>
        <mxCell id="LxxAJ4fF1tAMyiBmIzMk-29" value="内存中是否有bitmap" style="rhombus;whiteSpace=wrap;html=1;strokeColor=#A50040;fillColor=#d80073;fontColor=#ffffff;" vertex="1" parent="1">
          <mxGeometry x="745" y="4030" width="80" height="80" as="geometry" />
        </mxCell>
        <mxCell id="LxxAJ4fF1tAMyiBmIzMk-30" value="" style="edgeStyle=orthogonalEdgeStyle;rounded=0;orthogonalLoop=1;jettySize=auto;html=1;endArrow=classic;endFill=1;" edge="1" parent="1" source="LxxAJ4fF1tAMyiBmIzMk-31" target="LxxAJ4fF1tAMyiBmIzMk-33">
          <mxGeometry relative="1" as="geometry" />
        </mxCell>
        <mxCell id="LxxAJ4fF1tAMyiBmIzMk-31" value="加载已经存储在本地的图片" style="whiteSpace=wrap;html=1;fillColor=#1ba1e2;fontColor=#ffffff;strokeColor=#006EAF;" vertex="1" parent="1">
          <mxGeometry x="725" y="3930" width="120" height="60" as="geometry" />
        </mxCell>
        <mxCell id="LxxAJ4fF1tAMyiBmIzMk-32" value="是" style="edgeStyle=orthogonalEdgeStyle;rounded=0;orthogonalLoop=1;jettySize=auto;html=1;endArrow=classic;endFill=1;" edge="1" parent="1" source="LxxAJ4fF1tAMyiBmIzMk-33" target="LxxAJ4fF1tAMyiBmIzMk-37">
          <mxGeometry relative="1" as="geometry" />
        </mxCell>
        <mxCell id="LxxAJ4fF1tAMyiBmIzMk-33" value="是否加载成功" style="rhombus;whiteSpace=wrap;html=1;fillColor=#d80073;fontColor=#ffffff;strokeColor=#A50040;" vertex="1" parent="1">
          <mxGeometry x="930" y="3920" width="80" height="80" as="geometry" />
        </mxCell>
        <mxCell id="LxxAJ4fF1tAMyiBmIzMk-47" value="" style="edgeStyle=orthogonalEdgeStyle;rounded=0;orthogonalLoop=1;jettySize=auto;html=1;" edge="1" parent="1" source="LxxAJ4fF1tAMyiBmIzMk-37" target="LxxAJ4fF1tAMyiBmIzMk-42">
          <mxGeometry relative="1" as="geometry" />
        </mxCell>
        <mxCell id="LxxAJ4fF1tAMyiBmIzMk-37" value="处理图片" style="rounded=0;whiteSpace=wrap;html=1;strokeColor=#006EAF;fillColor=#1ba1e2;fontColor=#ffffff;" vertex="1" parent="1">
          <mxGeometry x="910" y="4040" width="120" height="60" as="geometry" />
        </mxCell>
        <mxCell id="LxxAJ4fF1tAMyiBmIzMk-48" value="是" style="edgeStyle=orthogonalEdgeStyle;rounded=0;orthogonalLoop=1;jettySize=auto;html=1;" edge="1" parent="1" source="LxxAJ4fF1tAMyiBmIzMk-42" target="LxxAJ4fF1tAMyiBmIzMk-45">
          <mxGeometry relative="1" as="geometry" />
        </mxCell>
        <mxCell id="LxxAJ4fF1tAMyiBmIzMk-65" style="edgeStyle=orthogonalEdgeStyle;rounded=0;orthogonalLoop=1;jettySize=auto;html=1;entryX=1;entryY=0.5;entryDx=0;entryDy=0;" edge="1" parent="1" source="LxxAJ4fF1tAMyiBmIzMk-42" target="LxxAJ4fF1tAMyiBmIzMk-59">
          <mxGeometry relative="1" as="geometry">
            <Array as="points">
              <mxPoint x="970" y="4390" />
            </Array>
          </mxGeometry>
        </mxCell>
        <mxCell id="LxxAJ4fF1tAMyiBmIzMk-66" value="否" style="edgeLabel;html=1;align=center;verticalAlign=middle;resizable=0;points=[];" vertex="1" connectable="0" parent="LxxAJ4fF1tAMyiBmIzMk-65">
          <mxGeometry x="-0.7584" y="3" relative="1" as="geometry">
            <mxPoint as="offset" />
          </mxGeometry>
        </mxCell>
        <mxCell id="LxxAJ4fF1tAMyiBmIzMk-42" value="图片是否可用" style="rhombus;whiteSpace=wrap;html=1;rounded=0;fillColor=#d80073;fontColor=#ffffff;strokeColor=#A50040;" vertex="1" parent="1">
          <mxGeometry x="930" y="4235" width="80" height="80" as="geometry" />
        </mxCell>
        <mxCell id="LxxAJ4fF1tAMyiBmIzMk-44" value="" style="edgeStyle=orthogonalEdgeStyle;rounded=0;orthogonalLoop=1;jettySize=auto;html=1;endArrow=classic;endFill=1;" edge="1" parent="1" source="LxxAJ4fF1tAMyiBmIzMk-45" target="LxxAJ4fF1tAMyiBmIzMk-46">
          <mxGeometry relative="1" as="geometry" />
        </mxCell>
        <mxCell id="LxxAJ4fF1tAMyiBmIzMk-58" value="是" style="edgeLabel;html=1;align=center;verticalAlign=middle;resizable=0;points=[];" vertex="1" connectable="0" parent="LxxAJ4fF1tAMyiBmIzMk-44">
          <mxGeometry x="-0.129" y="4" relative="1" as="geometry">
            <mxPoint x="-1" as="offset" />
          </mxGeometry>
        </mxCell>
        <mxCell id="LxxAJ4fF1tAMyiBmIzMk-63" style="edgeStyle=orthogonalEdgeStyle;rounded=0;orthogonalLoop=1;jettySize=auto;html=1;entryX=1;entryY=0.5;entryDx=0;entryDy=0;" edge="1" parent="1" source="LxxAJ4fF1tAMyiBmIzMk-45" target="LxxAJ4fF1tAMyiBmIzMk-59">
          <mxGeometry relative="1" as="geometry">
            <Array as="points">
              <mxPoint x="787" y="4390" />
            </Array>
          </mxGeometry>
        </mxCell>
        <mxCell id="LxxAJ4fF1tAMyiBmIzMk-64" value="否" style="edgeLabel;html=1;align=center;verticalAlign=middle;resizable=0;points=[];" vertex="1" connectable="0" parent="LxxAJ4fF1tAMyiBmIzMk-63">
          <mxGeometry x="-0.5713" y="5" relative="1" as="geometry">
            <mxPoint as="offset" />
          </mxGeometry>
        </mxCell>
        <mxCell id="LxxAJ4fF1tAMyiBmIzMk-45" value="图片宽和高是否合规" style="rhombus;whiteSpace=wrap;html=1;strokeColor=#A50040;fillColor=#d80073;fontColor=#ffffff;" vertex="1" parent="1">
          <mxGeometry x="747" y="4235" width="80" height="80" as="geometry" />
        </mxCell>
        <mxCell id="LxxAJ4fF1tAMyiBmIzMk-69" style="edgeStyle=orthogonalEdgeStyle;rounded=0;orthogonalLoop=1;jettySize=auto;html=1;entryX=0.5;entryY=1;entryDx=0;entryDy=0;" edge="1" parent="1" source="LxxAJ4fF1tAMyiBmIzMk-46" target="LxxAJ4fF1tAMyiBmIzMk-67">
          <mxGeometry relative="1" as="geometry">
            <Array as="points">
              <mxPoint x="623" y="4460" />
              <mxPoint x="-5" y="4460" />
            </Array>
          </mxGeometry>
        </mxCell>
        <mxCell id="LxxAJ4fF1tAMyiBmIzMk-46" value="适配浮层样式" style="whiteSpace=wrap;html=1;rounded=1;fillColor=#1ba1e2;fontColor=#ffffff;strokeColor=#006EAF;" vertex="1" parent="1">
          <mxGeometry x="562.5" y="4245" width="120" height="60" as="geometry" />
        </mxCell>
        <mxCell id="LxxAJ4fF1tAMyiBmIzMk-53" value="" style="edgeStyle=orthogonalEdgeStyle;rounded=0;orthogonalLoop=1;jettySize=auto;html=1;" edge="1" parent="1" source="LxxAJ4fF1tAMyiBmIzMk-49" target="LxxAJ4fF1tAMyiBmIzMk-52">
          <mxGeometry relative="1" as="geometry" />
        </mxCell>
        <mxCell id="LxxAJ4fF1tAMyiBmIzMk-54" value="是" style="edgeLabel;html=1;align=center;verticalAlign=middle;resizable=0;points=[];" vertex="1" connectable="0" parent="LxxAJ4fF1tAMyiBmIzMk-53">
          <mxGeometry x="-0.0172" y="1" relative="1" as="geometry">
            <mxPoint x="1" as="offset" />
          </mxGeometry>
        </mxCell>
        <mxCell id="LxxAJ4fF1tAMyiBmIzMk-60" value="" style="edgeStyle=orthogonalEdgeStyle;rounded=0;orthogonalLoop=1;jettySize=auto;html=1;entryX=0;entryY=0.5;entryDx=0;entryDy=0;exitX=0.5;exitY=1;exitDx=0;exitDy=0;" edge="1" parent="1" source="LxxAJ4fF1tAMyiBmIzMk-49" target="LxxAJ4fF1tAMyiBmIzMk-59">
          <mxGeometry relative="1" as="geometry" />
        </mxCell>
        <mxCell id="LxxAJ4fF1tAMyiBmIzMk-70" value="否" style="edgeLabel;html=1;align=center;verticalAlign=middle;resizable=0;points=[];" vertex="1" connectable="0" parent="LxxAJ4fF1tAMyiBmIzMk-60">
          <mxGeometry x="-0.4783" y="1" relative="1" as="geometry">
            <mxPoint y="1" as="offset" />
          </mxGeometry>
        </mxCell>
        <mxCell id="LxxAJ4fF1tAMyiBmIzMk-49" value="视频格式是否支持" style="rhombus;whiteSpace=wrap;html=1;rounded=0;fillColor=#d80073;fontColor=#ffffff;strokeColor=#A50040;" vertex="1" parent="1">
          <mxGeometry x="356.5" y="4230" width="102" height="90" as="geometry" />
        </mxCell>
        <mxCell id="LxxAJ4fF1tAMyiBmIzMk-56" style="edgeStyle=orthogonalEdgeStyle;rounded=0;orthogonalLoop=1;jettySize=auto;html=1;" edge="1" parent="1" source="LxxAJ4fF1tAMyiBmIzMk-52" target="LxxAJ4fF1tAMyiBmIzMk-55">
          <mxGeometry relative="1" as="geometry" />
        </mxCell>
        <mxCell id="LxxAJ4fF1tAMyiBmIzMk-57" value="是" style="edgeLabel;html=1;align=center;verticalAlign=middle;resizable=0;points=[];" vertex="1" connectable="0" parent="LxxAJ4fF1tAMyiBmIzMk-56">
          <mxGeometry x="-0.2075" y="3" relative="1" as="geometry">
            <mxPoint x="1" as="offset" />
          </mxGeometry>
        </mxCell>
        <mxCell id="LxxAJ4fF1tAMyiBmIzMk-61" style="edgeStyle=orthogonalEdgeStyle;rounded=0;orthogonalLoop=1;jettySize=auto;html=1;entryX=0;entryY=0.5;entryDx=0;entryDy=0;" edge="1" parent="1" source="LxxAJ4fF1tAMyiBmIzMk-52" target="LxxAJ4fF1tAMyiBmIzMk-59">
          <mxGeometry relative="1" as="geometry">
            <Array as="points">
              <mxPoint x="235" y="4390" />
            </Array>
          </mxGeometry>
        </mxCell>
        <mxCell id="LxxAJ4fF1tAMyiBmIzMk-62" value="否" style="edgeLabel;html=1;align=center;verticalAlign=middle;resizable=0;points=[];" vertex="1" connectable="0" parent="LxxAJ4fF1tAMyiBmIzMk-61">
          <mxGeometry x="-0.6941" y="7" relative="1" as="geometry">
            <mxPoint as="offset" />
          </mxGeometry>
        </mxCell>
        <mxCell id="LxxAJ4fF1tAMyiBmIzMk-52" value="视频是否能正常播放" style="rhombus;whiteSpace=wrap;html=1;rounded=0;fillColor=#d80073;fontColor=#ffffff;strokeColor=#A50040;" vertex="1" parent="1">
          <mxGeometry x="190" y="4234" width="90" height="85" as="geometry" />
        </mxCell>
        <mxCell id="LxxAJ4fF1tAMyiBmIzMk-68" value="" style="edgeStyle=orthogonalEdgeStyle;rounded=0;orthogonalLoop=1;jettySize=auto;html=1;" edge="1" parent="1" source="LxxAJ4fF1tAMyiBmIzMk-55" target="LxxAJ4fF1tAMyiBmIzMk-67">
          <mxGeometry relative="1" as="geometry" />
        </mxCell>
        <mxCell id="LxxAJ4fF1tAMyiBmIzMk-55" value="适配浮层样式" style="whiteSpace=wrap;html=1;rounded=1;fillColor=#1ba1e2;fontColor=#ffffff;strokeColor=#006EAF;" vertex="1" parent="1">
          <mxGeometry x="-65" y="4245" width="120" height="60" as="geometry" />
        </mxCell>
        <mxCell id="LxxAJ4fF1tAMyiBmIzMk-59" value="结束" style="whiteSpace=wrap;html=1;rounded=1;fillColor=#f0a30a;fontColor=#000000;strokeColor=#BD7000;" vertex="1" parent="1">
          <mxGeometry x="465" y="4360" width="120" height="60" as="geometry" />
        </mxCell>
        <mxCell id="LxxAJ4fF1tAMyiBmIzMk-67" value="展示开屏广告" style="whiteSpace=wrap;html=1;rounded=1;fillColor=#f0a30a;fontColor=#000000;strokeColor=#BD7000;" vertex="1" parent="1">
          <mxGeometry x="-65" y="4370" width="120" height="60" as="geometry" />
        </mxCell>
      </root>
    </mxGraphModel>
  </diagram>
</mxfile>
